# xmcd CD database file
#
# Track frame offsets:
#	150
#	24053
#	47000
#	67831
#	88137
#	113742
#	132269
#	150948
#	174228
#	195594
#	221522
#	242660
#	261371
#	287313
#	308688
#
# Disc length: 4479 seconds
#
# Revision: 1
# Processed by: cddbd v1.5.1PL2 Copyright (c) Steve Scherf et al.
# Submitted via: Feurio! 1.68 - http://www.feurio.com
#
DISCID=b8117d0f
DTITLE=Various Artist - Salsa Hits
DYEAR=2004
DGENRE=Salsa
TTITLE0=Melochcita - Madre
TTITLE1=Jose Alberto El Canario - Rio Manzanres
TTITLE2=Paquito Guzman - 25 Rosas
TTITLE3=Ray De La Paz - Ven y Dame un Poco Mas
TTITLE4=Frankie Ruiz - Esta Cobadia
TTITLE5=Oscar De Leon - Lloraras
TTITLE6=Conjunto Classico - Los Rodriguez
TTITLE7=Eddie Santiago - Que Locura Enamoramme
TTITLE8=Galy Galiano - La Cita
TTITLE9=Tito Rojas - Senora De Madrugada
TTITLE10=Victor Manuelle - Pensamiento y Palabra
TTITLE11=Raulin Rodriguez - Malas Y Buenas
TTITLE12=Groupo Niche - La Negra No Quiere
TTITLE13=Tony Vega - Dejame Sonar
TTITLE14=Tito Nieves - Mix
EXTD=
EXTT0=
EXTT1=
EXTT2=
EXTT3=
EXTT4=
EXTT5=
EXTT6=
EXTT7=
EXTT8=
EXTT9=
EXTT10=
EXTT11=
EXTT12=
EXTT13=
EXTT14=
PLAYORDER=
